<svg width="321" height="250" viewBox="0 0 321 250" fill="none" xmlns="http://www.w3.org/2000/svg">
<ellipse cx="154.222" cy="103.665" rx="153.941" ry="103.665" fill="#CBECEA"/>
<rect width="23.6797" height="107.167" transform="matrix(0.916001 -0.401176 0.552635 0.833423 37.9954 69.5298)" fill="#43B9B2"/>
<path d="M190.22 69.5282L211.911 60.0285L271.135 149.344L249.444 158.843L190.22 69.5282Z" fill="#43B9B2"/>
<rect width="23.6797" height="107.167" transform="matrix(0.916001 -0.401176 0.552635 0.833423 87.8462 69.5282)" fill="#43B9B2"/>
<rect x="179.844" y="129.456" width="10.6811" height="69.1716" transform="rotate(-90 179.844 129.456)" fill="#43B9B2"/>
<rect width="23.883" height="70.1737" transform="matrix(0.935289 0.353886 -0.497077 0.867706 192.245 60.0287)" fill="#43B9B2"/>
<path d="M282.859 232.885L198.189 195.663L263.763 166.018L282.859 232.885Z" fill="#CBECEA"/>
<path d="M202.121 70.3102L191.837 59.942L212.13 59.8204L202.121 70.3102Z" fill="#43B9B2"/>
<path d="M92.4933 72.8503L74.9005 60.312L109.752 60.1031L92.4933 72.8503Z" fill="#43B9B2"/>
<path d="M42.5589 72.8496L25.0719 60.3106L59.7116 60.103L42.5589 72.8496Z" fill="#43B9B2"/>
</svg>
